<?xml version="1.0" encoding="UTF-8" standalone="no"?>
<!DOCTYPE svg PUBLIC "-//W3C//DTD SVG 1.1//EN" "http://www.w3.org/Graphics/SVG/1.1/DTD/svg11.dtd">
<svg width="100%" height="100%" viewBox="0 0 79 67" version="1.1" xmlns="http://www.w3.org/2000/svg" xmlns:xlink="http://www.w3.org/1999/xlink" xml:space="preserve" xmlns:serif="http://www.serif.com/" style="fill-rule:evenodd;clip-rule:evenodd;stroke-linejoin:round;stroke-miterlimit:2;">
    <path d="M39.196,15.694c11.941,-21.383 32.461,-19.242 37.668,-3.631c1.957,5.867 2.466,13.884 -1.098,19.206c-9.177,13.701 -22.304,24.976 -36.57,35.551c-14.267,-10.575 -27.393,-21.85 -36.57,-35.551c-3.565,-5.322 -3.056,-13.339 -1.099,-19.206c5.207,-15.611 25.728,-17.752 37.669,3.631Zm-3.638,2.031c-5.046,-9.035 -11.682,-13.397 -17.828,-13.554c-5.497,-0.141 -10.283,3.312 -12.25,9.211c-1.585,4.751 -2.279,11.258 0.607,15.568c8.388,12.521 20.201,22.924 33.109,32.667c12.908,-9.743 24.721,-20.146 33.108,-32.667c2.887,-4.31 2.193,-10.817 0.608,-15.568c-1.968,-5.899 -6.754,-9.352 -12.25,-9.211c-6.147,0.157 -12.783,4.519 -17.828,13.554c-0.737,1.318 -2.128,2.135 -3.638,2.135c-1.51,0 -2.902,-0.817 -3.638,-2.135Z"/>
</svg>
