<?xml version="1.0" encoding="UTF-8" standalone="no"?>
<!DOCTYPE svg PUBLIC "-//W3C//DTD SVG 1.1//EN" "http://www.w3.org/Graphics/SVG/1.1/DTD/svg11.dtd">
<svg width="100%" height="100%" viewBox="0 0 1462 319" version="1.1" xmlns="http://www.w3.org/2000/svg" xmlns:xlink="http://www.w3.org/1999/xlink" xml:space="preserve" xmlns:serif="http://www.serif.com/" style="fill-rule:evenodd;clip-rule:evenodd;stroke-linejoin:round;stroke-miterlimit:2;">
    <g transform="matrix(1,0,0,1,-825.413,-409.855)">
        <g transform="matrix(8.13625,0,0,8.13625,886.842,703.167)">
            <g transform="matrix(50,0,0,50,0,0)">
                <path d="M0.552,-0.721c0.063,0 0.094,0.024 0.094,0.073c0,0.045 -0.032,0.109 -0.097,0.194c-0.064,0.085 -0.138,0.167 -0.223,0.248c-0.1,0.095 -0.188,0.168 -0.264,0.218c-0.011,0.007 -0.032,0.017 -0.061,0.03c-0.028,0.013 -0.054,0.019 -0.075,0.019c-0.011,-0 -0.034,-0.009 -0.067,-0.027c-0.007,-0.005 -0.01,-0.01 -0.01,-0.015c0,-0.009 0.012,-0.014 0.036,-0.017c0.034,-0.003 0.092,-0.035 0.173,-0.095c0.081,-0.061 0.162,-0.128 0.243,-0.202c0.081,-0.074 0.152,-0.146 0.214,-0.216c0.062,-0.07 0.093,-0.116 0.093,-0.138c0,-0.005 -0.003,-0.008 -0.008,-0.008c-0.033,0 -0.09,0.022 -0.17,0.067c-0.08,0.045 -0.155,0.097 -0.224,0.157c-0.069,0.059 -0.104,0.106 -0.104,0.141c0,0.001 0.001,0.002 0.003,0.002c0.017,0 0.053,-0.021 0.109,-0.062c0.055,-0.041 0.095,-0.076 0.12,-0.104c0.007,-0.007 0.012,-0.01 0.016,-0.01c0.005,0.001 0.008,0.003 0.008,0.007c0,0.004 -0.005,0.015 -0.014,0.032c-0.01,0.017 -0.024,0.037 -0.041,0.06c-0.018,0.023 -0.038,0.046 -0.059,0.069c-0.021,0.022 -0.045,0.041 -0.072,0.057c-0.027,0.015 -0.051,0.023 -0.074,0.023c-0.023,0 -0.04,-0.009 -0.05,-0.028c-0.01,-0.019 -0.015,-0.038 -0.015,-0.057c0,-0.045 0.02,-0.094 0.059,-0.145c0.039,-0.052 0.085,-0.097 0.14,-0.136c0.055,-0.039 0.112,-0.072 0.171,-0.098c0.059,-0.026 0.109,-0.039 0.149,-0.039Z" style="fill-rule:nonzero;"/>
            </g>
            <g transform="matrix(50,0,0,50,16.2,0)">
                <path d="M0.219,-0.331c0.005,0 0.014,0.003 0.026,0.008c0.013,0.005 0.019,0.011 0.019,0.018c0,0.005 -0.002,0.009 -0.005,0.014l-0.075,0.104c-0.009,0.011 -0.013,0.017 -0.013,0.018c0,0.001 0,0.002 0.001,0.002l0.005,-0.003c0.077,-0.054 0.141,-0.101 0.191,-0.142c0.009,-0.007 0.017,-0.01 0.024,-0.01c0.006,0 0.01,0.001 0.012,0.002l0.028,0.008c0.007,0.003 0.01,0.008 0.01,0.013c-0,0.005 -0.001,0.01 -0.004,0.013c-0.013,0.014 -0.027,0.03 -0.044,0.047c-0.016,0.018 -0.028,0.032 -0.036,0.04c-0.008,0.009 -0.017,0.02 -0.027,0.031c-0.01,0.011 -0.017,0.02 -0.022,0.026c-0.004,0.006 -0.009,0.013 -0.014,0.02c-0.005,0.008 -0.009,0.015 -0.011,0.02c-0.004,0.015 -0.006,0.029 -0.006,0.04c0,0.006 0.004,0.009 0.011,0.009c0.008,-0 0.022,-0.005 0.042,-0.014c0.021,-0.009 0.045,-0.024 0.074,-0.043c0.028,-0.019 0.065,-0.047 0.112,-0.083c0.047,-0.035 0.089,-0.065 0.124,-0.09c0.006,0.005 0.009,0.01 0.009,0.017c0,0.007 -0.003,0.013 -0.009,0.018c-0.021,0.021 -0.048,0.046 -0.081,0.077c-0.033,0.031 -0.083,0.073 -0.15,0.125c-0.067,0.052 -0.113,0.078 -0.14,0.078c-0.051,-0 -0.077,-0.027 -0.077,-0.082c0,-0.021 0.008,-0.042 0.024,-0.065l0.043,-0.059c0.004,-0.006 0.006,-0.01 0.006,-0.011c0,-0.001 -0.002,0.001 -0.006,0.004c-0.116,0.097 -0.19,0.153 -0.222,0.17c-0.005,0.003 -0.012,0.005 -0.02,0.005c-0.022,-0 -0.033,-0.01 -0.033,-0.03c0,-0.007 0.002,-0.013 0.005,-0.018c0.049,-0.045 0.084,-0.082 0.104,-0.111c0.016,-0.016 0.033,-0.038 0.05,-0.067c0.018,-0.029 0.033,-0.052 0.045,-0.071c0.013,-0.019 0.023,-0.028 0.03,-0.028Z" style="fill-rule:nonzero;"/>
            </g>
            <g transform="matrix(50,0,0,50,40.55,0)">
                <path d="M0.118,-0.073c0.023,0 0.045,-0.014 0.064,-0.043c0.02,-0.028 0.034,-0.056 0.042,-0.086c0.008,-0.028 0.012,-0.052 0.012,-0.069c-0,-0.005 -0.004,-0.007 -0.011,-0.007c-0.007,0 -0.015,0.004 -0.024,0.011l-0.131,0.101c-0.009,0.005 -0.02,0.008 -0.032,0.008c-0.012,0 -0.018,-0.004 -0.018,-0.013c-0,-0.006 0.001,-0.01 0.002,-0.012c0.002,-0.002 0.007,-0.005 0.015,-0.01c0.049,-0.034 0.117,-0.089 0.202,-0.166c0.01,-0.013 0.019,-0.02 0.027,-0.02c0.008,0 0.021,0.003 0.04,0.008c0.019,0.005 0.028,0.01 0.028,0.017c0,0.04 -0.004,0.076 -0.011,0.109c-0.007,0.033 -0.015,0.058 -0.023,0.075c-0.007,0.017 -0.011,0.026 -0.011,0.027c0,0.001 0.001,0.002 0.002,0.002c0.001,0 0.004,-0.001 0.008,-0.003c0.05,-0.025 0.114,-0.067 0.191,-0.124l0.024,-0.018c0.006,0.005 0.009,0.01 0.009,0.017c0,0.007 -0.003,0.013 -0.009,0.018c-0.001,0 -0.019,0.014 -0.051,0.042c-0.034,0.028 -0.07,0.058 -0.111,0.092c-0.04,0.032 -0.083,0.063 -0.129,0.09c-0.046,0.027 -0.082,0.041 -0.107,0.041c-0.063,-0 -0.094,-0.038 -0.094,-0.113c-0,-0.006 0.002,-0.011 0.007,-0.017c0.005,-0.004 0.012,-0.007 0.02,-0.007c-0,0.003 0.002,0.009 0.005,0.016c0.004,0.007 0.008,0.012 0.012,0.017c0.012,0.011 0.029,0.017 0.052,0.017Z" style="fill-rule:nonzero;"/>
            </g>
            <g transform="matrix(50,0,0,50,57.95,0)">
                <path d="M0.459,-0.462l0.051,-0.001c0.066,0 0.114,0.009 0.144,0.028c0.015,0.005 0.022,0.011 0.022,0.018c0,0.005 -0.007,0.009 -0.02,0.011c-0.013,0.002 -0.057,0.007 -0.135,0.015c-0.077,0.009 -0.129,0.014 -0.158,0.015c-0.013,0.001 -0.042,0.023 -0.087,0.066c-0.046,0.043 -0.09,0.091 -0.131,0.143c-0.041,0.052 -0.062,0.088 -0.062,0.109c0,0.003 0.002,0.006 0.005,0.008c0.003,0.003 0.008,0.004 0.013,0.004c0.005,-0 0.012,-0.002 0.023,-0.006c0.127,-0.075 0.25,-0.156 0.369,-0.245c0.006,0.005 0.009,0.01 0.009,0.017c0,0.007 -0.003,0.013 -0.01,0.019c-0.007,0.007 -0.017,0.016 -0.029,0.028c-0.013,0.012 -0.038,0.034 -0.073,0.065c-0.035,0.031 -0.069,0.059 -0.1,0.084c-0.084,0.068 -0.143,0.107 -0.176,0.118c-0.012,0.003 -0.026,0.005 -0.042,0.005c-0.017,-0 -0.032,-0.008 -0.045,-0.025c-0.014,-0.017 -0.021,-0.039 -0.021,-0.068c0,-0.029 0.019,-0.07 0.056,-0.124c0.037,-0.054 0.087,-0.109 0.151,-0.166c0.006,-0.005 0.009,-0.009 0.009,-0.013c0,-0.004 -0.007,-0.006 -0.021,-0.006l-0.063,0.002c-0.089,-0 -0.134,-0.01 -0.137,-0.03c-0.021,-0.004 -0.031,-0.01 -0.031,-0.018c0,-0.003 0.001,-0.004 0.004,-0.005c0.003,0 0.012,-0.001 0.017,-0.002c0.005,-0.001 0.042,-0.006 0.111,-0.016c0.069,-0.01 0.147,-0.018 0.235,-0.025l0.069,-0.092c0.004,-0.008 0.018,-0.012 0.042,-0.012c0.024,-0 0.036,0.005 0.036,0.015c0,0.003 -0.003,0.009 -0.008,0.018l-0.025,0.035c-0.003,0.011 -0.005,0.019 -0.006,0.024c0,0.005 0.005,0.007 0.014,0.007Z" style="fill-rule:nonzero;"/>
            </g>
            <g transform="matrix(50,0,0,50,73.6,0)">
                <path d="M0.178,-0.042l0.008,-0.064c0,-0.002 -0.001,-0.003 -0.002,-0.003c-0.001,0 -0.002,0.001 -0.005,0.004c-0.009,0.009 -0.02,0.021 -0.033,0.035c-0.013,0.013 -0.036,0.032 -0.068,0.055c-0.033,0.022 -0.059,0.034 -0.079,0.034c-0.003,-0.001 -0.007,-0.002 -0.012,-0.004c-0.005,-0.001 -0.012,-0.007 -0.02,-0.016c-0.008,-0.009 -0.012,-0.023 -0.012,-0.04c0,-0.017 0.013,-0.044 0.04,-0.079c0.026,-0.036 0.057,-0.071 0.094,-0.106c0.037,-0.034 0.078,-0.064 0.123,-0.089c0.045,-0.025 0.084,-0.038 0.117,-0.038c0.013,0.001 0.023,0.01 0.03,0.027c0.007,-0.007 0.013,-0.01 0.018,-0.01c0.005,-0 0.012,0.004 0.019,0.012c0.004,0.001 0.008,0.003 0.012,0.006c0.004,0.004 0.006,0.009 0.006,0.016c-0,0.007 -0.005,0.014 -0.014,0.022c-0.014,0.017 -0.03,0.037 -0.049,0.059c-0.019,0.022 -0.032,0.038 -0.04,0.047c-0.008,0.01 -0.016,0.021 -0.025,0.033c-0.015,0.021 -0.023,0.037 -0.024,0.05c0.068,-0.033 0.175,-0.103 0.321,-0.211c0.006,0.005 0.009,0.01 0.009,0.017c0,0.007 -0.003,0.012 -0.008,0.017c-0.005,0.005 -0.012,0.01 -0.019,0.017c-0.008,0.007 -0.023,0.02 -0.046,0.039c-0.023,0.019 -0.044,0.038 -0.065,0.055c-0.021,0.018 -0.045,0.038 -0.072,0.059c-0.027,0.022 -0.052,0.041 -0.073,0.056c-0.051,0.037 -0.083,0.055 -0.096,0.055c-0.013,-0 -0.022,-0.004 -0.027,-0.012c-0.005,-0.008 -0.008,-0.022 -0.008,-0.043Zm-0.102,-0.042c0.008,-0 0.033,-0.016 0.074,-0.049c0.041,-0.033 0.079,-0.065 0.116,-0.098l0.056,-0.049c0.003,-0.003 0.004,-0.005 0.004,-0.006c0,-0.001 -0.001,-0.001 -0.003,-0.001c-0.025,-0 -0.058,0.014 -0.099,0.043c-0.041,0.029 -0.076,0.06 -0.105,0.092c-0.03,0.033 -0.045,0.055 -0.045,0.066c0,0.001 0.001,0.002 0.002,0.002Z" style="fill-rule:nonzero;"/>
            </g>
            <g transform="matrix(50,0,0,50,93.1,0)">
                <path d="M0.42,-0.309c-0.001,0.024 -0.015,0.048 -0.044,0.071c-0.03,0.023 -0.065,0.035 -0.106,0.035c-0.017,-0 -0.026,-0.005 -0.026,-0.015c-0,-0.004 0.003,-0.007 0.009,-0.009c0.04,-0.023 0.065,-0.042 0.076,-0.057c0.001,-0.003 0.002,-0.006 0.002,-0.009c0,-0.003 -0.002,-0.005 -0.005,-0.005c-0.057,0.008 -0.111,0.039 -0.162,0.093c-0.051,0.054 -0.077,0.096 -0.077,0.126c-0,0.014 0.005,0.021 0.016,0.021c0.049,-0 0.101,-0.014 0.156,-0.043c0.055,-0.029 0.136,-0.081 0.244,-0.158c0.007,-0.005 0.057,-0.041 0.06,-0.043c0.006,0.005 0.009,0.01 0.009,0.017c0,0.007 -0.003,0.013 -0.009,0.018c-0.033,0.033 -0.076,0.071 -0.129,0.112c-0.053,0.041 -0.114,0.08 -0.183,0.117c-0.069,0.037 -0.125,0.056 -0.168,0.056c-0.051,-0 -0.077,-0.027 -0.077,-0.082c0,-0.038 0.013,-0.075 0.038,-0.112c0.025,-0.036 0.056,-0.066 0.093,-0.091c0.037,-0.025 0.075,-0.044 0.115,-0.059c0.04,-0.016 0.072,-0.023 0.097,-0.023c0.024,0 0.041,0.003 0.052,0.01c0.011,0.007 0.016,0.013 0.017,0.02l0.002,0.01Z" style="fill-rule:nonzero;"/>
            </g>
            <g transform="matrix(50,0,0,50,111.75,0)">
                <path d="M0.178,-0.042l0.008,-0.064c0,-0.002 -0.001,-0.003 -0.002,-0.003c-0.001,0 -0.002,0.001 -0.005,0.004c-0.009,0.009 -0.02,0.021 -0.033,0.035c-0.013,0.013 -0.036,0.032 -0.068,0.055c-0.033,0.022 -0.059,0.034 -0.079,0.034c-0.003,-0.001 -0.007,-0.002 -0.012,-0.004c-0.005,-0.001 -0.012,-0.007 -0.02,-0.016c-0.008,-0.009 -0.012,-0.023 -0.012,-0.04c0,-0.017 0.013,-0.044 0.04,-0.079c0.026,-0.036 0.057,-0.071 0.094,-0.106c0.037,-0.034 0.078,-0.064 0.123,-0.089c0.045,-0.025 0.084,-0.038 0.117,-0.038c0.013,0.001 0.023,0.01 0.03,0.027c0.007,-0.007 0.013,-0.01 0.018,-0.01c0.005,-0 0.012,0.004 0.019,0.012c0.004,0.001 0.008,0.003 0.012,0.006c0.004,0.004 0.006,0.009 0.006,0.016c-0,0.007 -0.005,0.014 -0.014,0.022c-0.014,0.017 -0.03,0.037 -0.049,0.059c-0.019,0.022 -0.032,0.038 -0.04,0.047c-0.008,0.01 -0.016,0.021 -0.025,0.033c-0.015,0.021 -0.023,0.037 -0.024,0.05c0.068,-0.033 0.175,-0.103 0.321,-0.211c0.006,0.005 0.009,0.01 0.009,0.017c0,0.007 -0.003,0.012 -0.008,0.017c-0.005,0.005 -0.012,0.01 -0.019,0.017c-0.008,0.007 -0.023,0.02 -0.046,0.039c-0.023,0.019 -0.044,0.038 -0.065,0.055c-0.021,0.018 -0.045,0.038 -0.072,0.059c-0.027,0.022 -0.052,0.041 -0.073,0.056c-0.051,0.037 -0.083,0.055 -0.096,0.055c-0.013,-0 -0.022,-0.004 -0.027,-0.012c-0.005,-0.008 -0.008,-0.022 -0.008,-0.043Zm-0.102,-0.042c0.008,-0 0.033,-0.016 0.074,-0.049c0.041,-0.033 0.079,-0.065 0.116,-0.098l0.056,-0.049c0.003,-0.003 0.004,-0.005 0.004,-0.006c0,-0.001 -0.001,-0.001 -0.003,-0.001c-0.025,-0 -0.058,0.014 -0.099,0.043c-0.041,0.029 -0.076,0.06 -0.105,0.092c-0.03,0.033 -0.045,0.055 -0.045,0.066c0,0.001 0.001,0.002 0.002,0.002Z" style="fill-rule:nonzero;"/>
            </g>
            <g transform="matrix(50,0,0,50,131.25,0)">
                <path d="M0.444,-0.062c0,0.006 0.004,0.009 0.012,0.009c0.007,0 0.021,-0.005 0.041,-0.014c0.021,-0.009 0.045,-0.024 0.074,-0.043c0.028,-0.019 0.066,-0.047 0.113,-0.082c0.047,-0.036 0.088,-0.066 0.123,-0.091c0.006,0.005 0.009,0.01 0.009,0.017c0,0.007 -0.003,0.013 -0.009,0.018c-0.021,0.021 -0.048,0.046 -0.081,0.077c-0.033,0.031 -0.083,0.073 -0.149,0.125c-0.068,0.052 -0.114,0.078 -0.141,0.078c-0.051,-0 -0.077,-0.027 -0.077,-0.082c0,-0.021 0.008,-0.042 0.024,-0.065l0.043,-0.059c0.004,-0.006 0.006,-0.01 0.006,-0.011c0,-0.001 -0.002,0.001 -0.006,0.004c-0.116,0.097 -0.19,0.153 -0.222,0.17c-0.005,0.003 -0.012,0.005 -0.02,0.005c-0.022,-0 -0.033,-0.01 -0.033,-0.03c0,-0.007 0.002,-0.013 0.005,-0.018c0.039,-0.056 0.068,-0.094 0.089,-0.113l0.017,-0.017c0.001,-0.001 0.002,-0.003 0.002,-0.004c0,-0.001 -0.001,-0.002 -0.002,-0.002c-0.001,0 -0.003,0.001 -0.006,0.004l-0.107,0.084c-0.062,0.049 -0.096,0.075 -0.101,0.077c-0.006,0.003 -0.011,0.005 -0.016,0.005c-0.005,-0 -0.012,-0.003 -0.022,-0.009c-0.01,-0.005 -0.015,-0.012 -0.015,-0.019c0,-0.002 0.001,-0.005 0.003,-0.008c0.065,-0.072 0.113,-0.131 0.143,-0.178c0.013,-0.02 0.024,-0.038 0.034,-0.053c0.009,-0.016 0.017,-0.027 0.023,-0.034c0.005,-0.007 0.011,-0.01 0.018,-0.01c0.007,-0 0.014,0.004 0.023,0.011c0.008,0.008 0.012,0.016 0.012,0.024c0,0.008 -0.003,0.016 -0.008,0.025c-0.023,0.041 -0.04,0.067 -0.053,0.079c-0.002,0.002 -0.003,0.004 -0.003,0.005c0,0.002 0.001,0.003 0.002,0.003l0.003,-0.001l0.134,-0.093c0.034,-0.023 0.054,-0.035 0.061,-0.035c0.007,-0 0.014,0.002 0.022,0.006c0.007,0.005 0.011,0.01 0.011,0.015c0,0.005 -0.002,0.011 -0.005,0.016l-0.065,0.089c-0.009,0.011 -0.013,0.017 -0.013,0.018c0,0.001 0,0.002 0.001,0.002l0.005,-0.003c0.083,-0.057 0.14,-0.096 0.169,-0.118c0.03,-0.022 0.048,-0.036 0.054,-0.042c0.009,-0.007 0.017,-0.01 0.023,-0.01c0.007,-0 0.011,0.001 0.013,0.002l0.022,0.017c0.007,0.003 0.01,0.008 0.01,0.013c-0,0.005 -0.001,0.01 -0.004,0.013c-0.039,0.043 -0.071,0.077 -0.095,0.102c-0.023,0.025 -0.04,0.044 -0.051,0.056c-0.017,0.021 -0.028,0.037 -0.032,0.05c-0.005,0.009 -0.008,0.018 -0.008,0.025Z" style="fill-rule:nonzero;"/>
            </g>
        </g>
    </g>
</svg>
