<?xml version="1.0" encoding="UTF-8" standalone="no"?><!DOCTYPE svg PUBLIC "-//W3C//DTD SVG 1.1//EN" "http://www.w3.org/Graphics/SVG/1.1/DTD/svg11.dtd"><svg width="67px" height="67px" version="1.1" xmlns="http://www.w3.org/2000/svg" xmlns:xlink="http://www.w3.org/1999/xlink" xml:space="preserve" xmlns:serif="http://www.serif.com/" style="fill-rule:evenodd;clip-rule:evenodd;stroke-linecap:round;stroke-miterlimit:1.5;"><g transform="matrix(1,0,0,1,-1965.31,-1774.22)"><g transform="matrix(0.919371,0,0,0.919371,140.946,136.836)"><path d="M2020.7,1780.98c20.056,-0 36.34,16.283 36.34,36.34c-0,20.056 -16.284,36.34 -36.34,36.34c-20.057,-0 -36.34,-16.284 -36.34,-36.34c-0,-20.057 16.283,-36.34 36.34,-36.34Zm-0,4.532c-17.556,-0 -31.808,14.253 -31.808,31.808c-0,17.555 14.252,31.808 31.808,31.808c17.555,-0 31.808,-14.253 31.808,-31.808c-0,-17.555 -14.253,-31.808 -31.808,-31.808Z"/></g><g transform="matrix(1,0,0,1,-0.0373631,4.52925)"><ellipse cx="1985.9" cy="1793.93" rx="3.154" ry="3.469"/></g><g transform="matrix(1,0,0,1,25.6823,4.52925)"><ellipse cx="1985.9" cy="1793.93" rx="3.154" ry="3.469"/></g><g transform="matrix(1,0,0,1,-0.0373631,3.88221)"><path d="M1982.75,1813.82c11.769,9.401 22.416,9.147 32.028,-0" style="fill:none;stroke:#000;stroke-width:4.17px;"/></g></g></svg>