<?xml version="1.0" encoding="UTF-8" standalone="no"?>
<!DOCTYPE svg PUBLIC "-//W3C//DTD SVG 1.1//EN" "http://www.w3.org/Graphics/SVG/1.1/DTD/svg11.dtd">
<svg width="100%" height="100%" viewBox="0 0 68 67" version="1.1" xmlns="http://www.w3.org/2000/svg" xmlns:xlink="http://www.w3.org/1999/xlink" xml:space="preserve" xmlns:serif="http://www.serif.com/" style="fill-rule:evenodd;clip-rule:evenodd;stroke-linejoin:round;stroke-miterlimit:2;">
    <path d="M6.748,52.332c-4.237,-5.466 -6.748,-12.254 -6.748,-19.605c-0,-18.063 15.16,-32.727 33.833,-32.727c18.672,0 33.832,14.664 33.832,32.727c0,18.062 -15.16,32.727 -33.832,32.727c-6.881,-0 -13.285,-1.992 -18.63,-5.411l-15.203,6.777l6.748,-14.488Zm3.777,1.759l-2.043,4.386l5.025,-2.239c1.28,-0.571 2.761,-0.46 3.942,0.295c4.7,3.007 10.332,4.754 16.384,4.754c16.335,-0 29.665,-12.759 29.665,-28.56c0,-15.802 -13.33,-28.56 -29.665,-28.56c-16.336,-0 -29.666,12.758 -29.666,28.56c-0,6.394 2.188,12.297 5.874,17.052c0.956,1.233 1.142,2.897 0.484,4.312Z"/>
</svg>
